<?xml version="1.0" encoding="UTF-8" standalone="no"?>
<svg
   width="1247.2441"
   height="755.90552"
   viewBox="0 0 1247.2441 755.90552"
   version="1.1"
   xml:space="preserve"
   style="clip-rule:evenodd;fill-rule:evenodd"
   id="svg441"
   sodipodi:docname="map-riven.svg"
   inkscape:version="1.1.2 (0a00cf5339, 2022-02-04)"
   xmlns:inkscape="http://www.inkscape.org/namespaces/inkscape"
   xmlns:sodipodi="http://sodipodi.sourceforge.net/DTD/sodipodi-0.dtd"
   xmlns="http://www.w3.org/2000/svg"
   xmlns:svg="http://www.w3.org/2000/svg"><defs
   id="defs445"><pattern
   inkscape:collect="always"
   patternUnits="userSpaceOnUse"
   width="2"
   height="1"
   patternTransform="translate(0,0) scale(10,10)"
   id="Strips1_1"
   inkscape:stockid="Stripes 1:1"
   inkscape:isstock="true"><rect
     style="fill:black;stroke:none"
     x="0"
     y="-0.5"
     width="1"
     height="2"
     id="rect21205" /></pattern>
        
        
        
        
        
        
        
        
        
        
        
        
        
        
        
        
        
        
        
        
        
        
        
        
        
        
        
        
        
        
        
        
        
        
        
        
        
        
        
        
        
        
        
        
        
        
        
        
        
        
        
        
        
        
        
        
        
        
        
        
        
    
                
            
                
            
                        
                    
                    
                    
                
                
            
                    
                
                
                
            
                    
                
                
                
            
                        
                    
                    
                    
                
                
            
                        
                    
                    
                    
                
                
            
                        
                    
                    
                    
                
                
            
            
        
            
        
            
        
            
        
            
        
            
        
            
        
            
        
            
        
            
        
            
        
            
        
            
        
            
        
            
        
            
        
            
        
            
        
            
        
            
        
            
        
            
        
            
        
            
        
            
        
            
        
            
        
            
        
            
        
            
        
            
        
            
            
        
            
        
            
        
            
        
            
        
            
        
            
        
            
        
            
        
            
        
            
        
            
        
            
        
            
        
            
        
            
        
            
        
            
        
            
        
            
        
            
        
            
        
            
        
            
        
            
        
            
        
            
        
            
        
            
        
                        
                    
                    
                    
                
                
            </defs><sodipodi:namedview
   id="namedview443"
   pagecolor="#ffffff"
   bordercolor="#666666"
   borderopacity="1.0"
   inkscape:showpageshadow="2"
   inkscape:pageopacity="0.0"
   inkscape:pagecheckerboard="0"
   inkscape:deskcolor="#d1d1d1"
   showgrid="false"
   inkscape:zoom="0.94331375"
   inkscape:cx="603.72278"
   inkscape:cy="358.84137"
   inkscape:window-width="1888"
   inkscape:window-height="990"
   inkscape:window-x="0"
   inkscape:window-y="28"
   inkscape:window-maximized="1"
   inkscape:current-layer="g996"
   inkscape:pageshadow="2"><inkscape:grid
     type="xygrid"
     id="grid1412"
     spacingx="3.7795276"
     spacingy="3.7795276"
     dotted="true"
     originx="188.97637"
     originy="0" /></sodipodi:namedview>
    <g
   id="g996"
   inkscape:label="G16"
   transform="matrix(1.395765,0,0,1.395765,-35.056331,-3.5246362)"><rect
     style="opacity:1;fill:#ffffff;fill-opacity:1;stroke-width:2.86581;stroke-miterlimit:4;stroke-dasharray:none"
     id="rect65088"
     width="897.86652"
     height="549.42218"
     x="26.011406"
     y="1.1150335" /><rect
     style="opacity:0.5;fill:url(#Strips1_1);fill-opacity:1;stroke-width:2.86581;stroke-miterlimit:4;stroke-dasharray:none"
     id="rect52485"
     width="99.005402"
     height="82.388275"
     x="785.02661"
     y="252.13316" /><path
     id="path10100-7"
     d="m 401.7048,379.7175 v -47.16 h 4.546 v -3.22 h -13.637 l -0.015,60.196 h -63.554 l -15.554,-14.999 h -84.555 v 8.999 h -24.554 v -43.98 l -11.247,0.088 v 49.892 h -23.718 v -9 h -18.845 v 9 h -28.031 v -9 h -18.845 v 9 h -26.531 v -9 h -18.845 v 9 h -22.686 l -10e-4,-98.572 h 157.501 l 0.001,14.465 h 11.247 l 0.002,-14.465 h 189.107 v 7.233 h 10.178 v -7.233 h 85.162 l -0.006,27.677 h 2.426 l 0.006,-27.677 h 65.001 v 117.775 h -22.729 l -0.062,7.884 -22.119,-0.002 v -7.882 h -20.089 l -0.087,-64.19 h -2.427 l 0.085,64.19 h -39.413 v 7.882 h -23.128 v -7.882 l -5.879,0.379 -18.705,-29.774 z m 23.296,0.001 v -50.855 l -3.862,-0.171 0.056,2.682 3.446,0.166 0.36,48.177 h -1.386"
     style="fill:none;fill-rule:nonzero;stroke:#000000;stroke-width:2.8px" /><path
     d="m 50.997,10.32088 v 23.303 H 36.08 v 75.268 h 16.607 v 25.179 H 36.08 v 71.64 h 14.917 v 6.819 l 83.97,-0.32 v 6.336 l -83.97,0.319 v 8.06 H 36.08 v 23.485 h 14.917 v 12.501 h 145.652 v -44.131 l -36.944,0.136 v -6.694 l 36.754,-0.136 v -31.376 l 6.506,-0.128 v 11.014 l 125.319,0.465 v -27.829 h 7.577 v -19.697 h -8.429 v -11.271 l -13.352,-13.352 h -5.873 v -12.69 h 10.418 l 18.941,18.94 h 6.06 v 14.205 h 46.465 v -13.448 l 2.969,0.001 -0.061,-84.603 h 13.638 l 0.06,9.598 h -4.545 v 47.54 h 22.937 v -48.556 l -3.447,-0.166 -0.116,-9.06 3.863,0.171 0.072,57.549 h 2.84 l -0.012,3.85 h -26.705 v 32.958 l 14.773,14.773 36.538,-0.418 v -48.359 h -2.045 l 0.012,-2.969 h 3.359 v 51.328 l 35.056,0.039 -0.112,-109.815 h 2.43 l 0.11,109.815 h 20.091 v 7.883 h 22.117 l 0.063,-7.883 h 22.729 v -101.71 h 7.955 v -22.35 h -7.955 v -16.214 h -65 v 5.449 h -2.43 v -5.449 h -85.159 v 7.232 h -10.179 v -7.232 H 204.83 v 14.464 h -11.25 v -14.464 z m 145.462,96.522 h 84.095 v 12.501 l -77.625,0.129 0.354,35.9 -6.47,-0.509 z"
     style="fill:none;fill-rule:nonzero;stroke:#000000;stroke-width:2.83px"
     id="path184" /><path
     d="m 402.729,59.58488 h 22.727 z m -0.19,8.523 h 22.539 z m 0.379,7.766 h 22.729 z m -0.189,8.145 h 21.97 z m -0.568,7.576 h 23.106 z"
     style="fill:none;fill-rule:nonzero;stroke:#000000;stroke-width:2px"
     id="path187" /><path
     d="m 37.344537,137.99119 h 23.381439 c -0.01129,6.18182 -2.480063,12.10688 -6.868844,16.45899 -4.388781,4.3521 -10.332187,6.77291 -16.512595,6.72213"
     style="fill:none;fill-rule:nonzero;stroke:#d0d4eb;stroke-width:2.00324px"
     id="path190" /><path
     id="rect193"
     style="fill:none;stroke:#000000;stroke-width:1.23182px;stroke-linecap:round;stroke-linejoin:round"
     d="m 234.02233,119.23914 h 3.14513 v 72.203 h -3.14513 z" /><path
     d="m 37.344537,137.99119 h 23.381439 c -0.01129,6.18182 -2.480063,12.10688 -6.868844,16.45899 -4.388781,4.3521 -10.332187,6.77291 -16.512595,6.72213"
     style="fill:none;fill-rule:nonzero;stroke:#000000;stroke-width:2.00324px"
     id="path290" /><path
     d="m 197.69341,180.04605 -23.37995,0.26592 c -0.059,-6.18155 2.34221,-12.13432 6.68122,-16.53606 4.339,-4.40174 10.2545,-6.88999 16.43509,-6.9095"
     style="fill:none;fill-rule:nonzero;stroke:#000000;stroke-width:2.00324px"
     id="path293" /><text
     x="252.74117"
     y="62.296001"
     style="font-weight:700;font-size:16.3493px;font-family:Helvetica-Bold, Helvetica;stroke-width:1.53529"
     id="text300">Electronics</text><text
     x="94.440643"
     y="41.426388"
     style="font-weight:700;font-size:16.3493px;font-family:Helvetica-Bold, Helvetica;stroke-width:1.53529"
     id="text304">Sewing</text><text
     x="57.341614"
     y="238.17644"
     style="font-weight:700;font-size:16.8001px;font-family:Helvetica-Bold, Helvetica;stroke-width:1.57762"
     id="text308"
     transform="scale(0.97316757,1.0275723)">Laserlab</text><text
     x="161.04843"
     y="319.99432"
     style="font-weight:700;font-size:16.8001px;font-family:Helvetica-Bold, Helvetica;stroke-width:1.57762"
     id="text312"
     transform="scale(0.97316755,1.0275723)">Hobelhöhle</text><text
     x="332.20847"
     y="-506.6651"
     style="font-weight:700;font-size:16.8001px;font-family:Helvetica-Bold, Helvetica;stroke-width:1.57762"
     id="text316"
     transform="matrix(0,0.97316757,-1.0275723,0,0,0)">3D Lab</text><text
     x="305.78119"
     y="-345.5715"
     style="font-weight:700;font-size:16.8001px;font-family:Helvetica-Bold, Helvetica;stroke-width:1.57762"
     id="text320"
     transform="matrix(0,0.97316754,-1.0275723,0,0,0)"><tspan
       sodipodi:role="line"
       id="tspan23113"
       x="305.78119"
       y="-345.5715">Scubar or</tspan><tspan
       sodipodi:role="line"
       id="tspan23115"
       x="305.78119"
       y="-324.57138">Hobelhöhle</tspan></text><text
     x="331.76147"
     y="-431.82755"
     style="font-weight:700;font-size:16.8001px;font-family:Helvetica-Bold, Helvetica;stroke-width:1.57762"
     id="text324"
     transform="matrix(0,0.97316757,-1.0275723,0,0,0)">Storage</text><text
     x="53.385052"
     y="-451.30939"
     style="font-weight:700;font-size:16.8001px;font-family:Helvetica-Bold, Helvetica;stroke-width:1.57762"
     id="text328"
     transform="matrix(0,0.97316757,-1.0275723,0,0,0)">Kitchen</text><text
     x="57.220566"
     y="-512.35718"
     style="font-weight:700;font-size:16.8001px;font-family:Helvetica-Bold, Helvetica;stroke-width:1.57762"
     id="text332"
     transform="matrix(0,0.97316757,-1.0275723,0,0,0)" /><text
     x="66.56324"
     y="-512.35718"
     style="font-weight:700;font-size:16.8001px;font-family:Helvetica-Bold, Helvetica;stroke-width:1.57762"
     id="text334"
     transform="matrix(0,0.97316757,-1.0275723,0,0,0)">CW3</text><rect
     style="opacity:0.5;fill:url(#Strips1_1);fill-opacity:1;stroke-width:2.86581;stroke-miterlimit:4;stroke-dasharray:none"
     id="rect52575"
     width="91.116539"
     height="72.821739"
     x="237.16745"
     y="119.23914" /><rect
     style="opacity:0.6;fill:#df7a19;fill-opacity:1;stroke-width:2.86581;stroke-miterlimit:4;stroke-dasharray:none"
     id="rect115092"
     width="91.116539"
     height="72.821739"
     x="237.16745"
     y="119.23915" /><text
     x="257.61423"
     y="150.62909"
     style="font-weight:700;font-size:16.8001px;font-family:Helvetica-Bold, Helvetica;stroke-width:1.57762"
     id="text344"
     transform="scale(0.97316755,1.0275723)"><tspan
       sodipodi:role="line"
       id="tspan35569"
       x="257.61423"
       y="150.62909">AVXLab </tspan><tspan
       sodipodi:role="line"
       id="tspan35571"
       x="257.61423"
       y="171.62921">or CW4</tspan></text><text
     x="140.95261"
     y="-211.50337"
     style="font-weight:700;font-size:8.75895px;font-family:Helvetica-Bold, Helvetica;stroke-width:1.57762"
     id="text352"
     transform="matrix(0,0.97316757,-1.0275723,0,0,0)">Darkroom</text><text
     x="425.24414"
     y="127.65093"
     style="font-weight:700;font-size:13.0931px;font-family:Helvetica-Bold, Helvetica;stroke-width:1.22951"
     id="text380"
     transform="scale(0.97316801,1.0275718)">WC</text><path
     id="path410"
     style="fill:none;fill-rule:nonzero;stroke:#000000;stroke-width:2px"
     d="m 402.33008,339.44141 h 22.72851 z m -0.18946,8.52343 h 22.53907 z m 0.37891,7.76563 h 22.72852 z m -0.18945,8.14453 h 21.9707 z m -0.56641,7.57617 h 23.10547 z m 0.125,6.58203 h 23.10547 z" /><text
     x="88.746719"
     y="164.55322"
     style="font-weight:700;font-size:16.8001px;font-family:Helvetica-Bold, Helvetica;stroke-width:1.57762"
     id="text418"
     transform="scale(0.97316755,1.0275723)">Lobby</text><path
     d="M 305.67081,105.86796 V 82.486524 c -6.18182,0.01129 -12.10688,2.480063 -16.45899,6.868844 -4.3521,4.388781 -6.77291,10.332187 -6.72213,16.512592"
     style="fill:none;fill-rule:nonzero;stroke:#000000;stroke-width:2.00324px"
     id="path422" /><path
     d="m 491.15936,319.78573 -23.38028,0.23572 c 0.0736,6.18139 2.60199,12.08128 7.03443,16.38892 4.43244,4.30764 10.39996,6.66842 16.57955,6.55532"
     style="fill:none;fill-rule:nonzero;stroke:#000000;stroke-width:2.00324px"
     id="path425" /><path
     d="m 392.96846,18.10369 h -23.38144 c 0.0113,6.181819 2.48007,12.106885 6.86885,16.458987 4.38878,4.352102 10.33218,6.772914 16.51259,6.722128"
     style="fill:none;fill-rule:nonzero;stroke:#000000;stroke-width:2.00324px"
     id="path428" /><path
     d="m 488.94546,16.56069 h -23.38144 c 0.0113,6.181819 2.48007,12.106885 6.86885,16.458987 4.38878,4.352102 10.33218,6.772914 16.51259,6.722128"
     style="fill:none;fill-rule:nonzero;stroke:#000000;stroke-width:2.00324px"
     id="path431" /><path
     d="M 451.52778,98.945567 451.698,75.564791 c -6.18172,-0.03372 -12.12459,2.39185 -16.50852,6.748821 -4.38393,4.356972 -6.84795,10.282584 -6.84216,16.463187"
     style="fill:none;fill-rule:nonzero;stroke:#000000;stroke-width:2.00323px"
     id="path434" /><path
     d="m 136.02198,218.50386 0.1067,23.38127 c 6.18173,-0.0395 12.09548,-2.5353 16.42753,-6.94391 4.33204,-4.40861 6.72571,-10.36302 6.64672,-16.54315"
     style="fill:none;fill-rule:nonzero;stroke:#000000;stroke-width:2.00324px"
     id="path437" /><text
     x="72.744057"
     y="-508.65768"
     style="font-size:13.03px;font-family:Helvetica;clip-rule:evenodd;fill-rule:evenodd;stroke-width:0.488621"
     id="text6427"
     transform="rotate(90)">11m</text><path
     style="fill:#000000;fill-opacity:1;stroke:#000000;stroke-width:2.86581194;stroke-linecap:butt;stroke-linejoin:miter;stroke-miterlimit:4;stroke-dasharray:none;stroke-opacity:1"
     d="M 313.4908,374.5345 V 343.56424"
     id="path19043" /><path
     style="clip-rule:evenodd;fill:#000000;fill-opacity:1;fill-rule:evenodd;stroke:#000000;stroke-width:2.86581194;stroke-linecap:butt;stroke-linejoin:miter;stroke-miterlimit:4;stroke-dasharray:none;stroke-opacity:1"
     d="M 313.48234,321.35993 V 291.93401"
     id="path19043-1" /><path
     d="m 313.4908,343.56424 -23.37995,0.26592 c -0.059,-6.18155 2.34221,-12.13432 6.68122,-16.53606 4.339,-4.40174 10.2545,-6.88999 16.43509,-6.9095"
     style="clip-rule:evenodd;fill:none;fill-rule:nonzero;stroke:#000000;stroke-width:2.00324px"
     id="path293-8" /><text
     x="445.42181"
     y="-670.34235"
     style="font-weight:700;font-size:16.8001px;font-family:Helvetica-Bold, Helvetica;clip-rule:evenodd;fill-rule:evenodd;stroke-width:1.57762"
     id="text320-7"
     transform="matrix(0,0.97316754,-1.0275723,0,0,0)"><tspan
       sodipodi:role="line"
       id="tspan53353"
       x="445.42181"
       y="-670.34235"> \Scubar</tspan><tspan
       sodipodi:role="line"
       id="tspan53355"
       x="445.42181"
       y="-649.34222">or Scubar</tspan></text><rect
     style="opacity:0.2;fill:#10ff10;fill-opacity:1;stroke-width:3.39558;stroke-miterlimit:4;stroke-dasharray:none"
     id="rect20221"
     width="49.738018"
     height="91.758774"
     x="662.54382"
     y="430.22061" /><rect
     style="opacity:0.2;fill:#10ff10;fill-opacity:1;stroke-width:2.86581;stroke-miterlimit:4;stroke-dasharray:none"
     id="rect22271"
     width="79.116463"
     height="97.599487"
     x="313.48233"
     y="291.93405" /><rect
     style="opacity:0.3;fill:#40e0d0;fill-opacity:1;stroke-width:2.86581;stroke-miterlimit:4;stroke-dasharray:none"
     id="rect107479"
     width="159.11446"
     height="74.094688"
     x="37.344536"
     y="137.9912" /><rect
     style="opacity:0.3;fill:#40e0d0;fill-opacity:1;stroke-width:2.86581;stroke-miterlimit:4;stroke-dasharray:none"
     id="rect107646"
     width="150.85876"
     height="137.9543"
     x="591.51678"
     y="291.69958" /><rect
     style="opacity:0.5;fill:#df7a19;fill-opacity:1;stroke-width:2.86581;stroke-miterlimit:4;stroke-dasharray:none"
     id="rect115632"
     width="99.005371"
     height="82.38826"
     x="785.02661"
     y="252.13319" /></g><g
   id="g964"
   inkscape:label="G13"
   transform="matrix(1.7136719,0,0,1.7136719,-263.55547,-2.3546493)"><path
     d="M 615.3752,396.72125 616.16837,7.3398741 H 741.33324 V 39.167145 H 869.98578 V 186.7545 l -16.61351,25.06827 V 311.772 H 732.58373 l -19.0999,20.08535 v 92.60579 h -74.1074"
     style="fill:none;stroke:#000000;stroke-width:2.80202px"
     id="path196" /><path
     d="M 738.50719,60.805312 V 149.12901 H 615.87931"
     style="fill:none;stroke:#000000;stroke-width:2.80202px"
     id="path199" /><path
     d="m 738.50719,184.77284 v 92.37809"
     style="fill:none;stroke:#000000;stroke-width:2.80202px"
     id="path202" /><path
     d="m 615.1222,236.90305 h 41.5306 m 20.21629,0 h 61.6381"
     style="fill:none;stroke:#000000;stroke-width:2.80202px"
     id="path205" /><path
     d="M 772.73357,40.780678 V 65.940661"
     style="fill:none;stroke:#000000;stroke-width:2.80202px"
     id="path209" /><path
     d="M 869.98578,92.578819 772.73357,91.710383 V 109.60346"
     style="fill:none;stroke:#000000;stroke-width:2.80202px"
     id="path212" /><path
     d="m 869.98578,137.29285 h -97.25221 v 34.6742"
     style="fill:none;stroke:#000000;stroke-width:2.80202px"
     id="path215" /><path
     d="m 822.99155,271.78092 h 30.38072"
     style="fill:none;stroke:#000000;stroke-width:2.80202px"
     id="path218" /><path
     d="m 798.5988,271.78092 h -25.86523 v -67.10425 h 10.52054 m 0,0 h 18.70458 m 0,0 h 56.14918"
     style="fill:none;stroke:#000000;stroke-width:2.80202px"
     id="path221" /><path
     d="m 811.05292,178.28645 v -40.9936"
     style="fill:none;stroke:#000000;stroke-width:2.80202px"
     id="path224" /><path
     d="m 811.05292,170.50279 h -10.0898"
     style="fill:none;stroke:#000000;stroke-width:2.80202px"
     id="path227" /><path
     d="m 615.3752,396.72125 24.00123,27.74189"
     style="fill:none;stroke:#000000;stroke-width:0.63251px"
     id="path230" /><path
     d="m 656.6528,236.90305 h 20.21629"
     style="fill:none;stroke:#000000;stroke-width:0.63251px"
     id="path233" /><path
     d="M 738.50719,184.77284 V 153.45348"
     style="fill:none;stroke:#000000;stroke-width:0.63251px"
     id="path236" /><path
     d="M 738.50719,60.805312 V 44.033677"
     style="fill:none;stroke:#000000;stroke-width:0.63251px"
     id="path239" /><path
     d="M 772.73357,65.940661 V 87.022219"
     style="fill:none;stroke:#000000;stroke-width:0.63251px"
     id="path242" /><text
     x="666.47198"
     y="96.654503"
     style="font-size:10.6128px;font-family:Helvetica;stroke-width:0.397976"
     id="text245">39m</text><text
     x="687.117"
     y="93.120476"
     style="font-size:6.18733px;font-family:Helvetica;stroke-width:0.397976"
     id="text247">2</text><text
     x="804.76202"
     y="79.1605"
     style="font-size:10.6128px;font-family:Helvetica;stroke-width:0.397976"
     id="text256">9m</text><text
     x="819.50464"
     y="75.626472"
     style="font-size:6.18733px;font-family:Helvetica;stroke-width:0.397976"
     id="text258">2</text><text
     x="661.66302"
     y="217.5795"
     style="font-size:10.6128px;font-family:Helvetica;stroke-width:0.397976"
     id="text267">20m</text><text
     x="682.30798"
     y="214.04547"
     style="font-size:6.18733px;font-family:Helvetica;stroke-width:0.397976"
     id="text269">2</text><path
     d="m 777.66145,170.50658 23.30167,-0.004"
     style="fill:none;stroke:#000000;stroke-width:0.63251px"
     id="path278" /><path
     d="m 811.05292,178.28645 0.23024,21.88991"
     style="fill:none;stroke:#000000;stroke-width:0.63251px"
     id="path281" /><path
     d="m 772.73357,109.60346 v 21.8159"
     style="fill:none;stroke:#000000;stroke-width:0.63251px"
     id="path284" /><text
     x="662.98285"
     y="55.292953"
     style="font-weight:700;font-size:16.8001px;font-family:Helvetica-Bold, Helvetica;stroke-width:1.57762"
     id="text296"
     transform="scale(0.97316755,1.0275723)"><tspan
       sodipodi:role="line"
       id="tspan101460"
       x="662.98285"
       y="55.292953">   CW1</tspan><tspan
       sodipodi:role="line"
       id="tspan101462"
       x="662.98285"
       y="76.293076">(Room2)</tspan></text><text
     x="661.02429"
     y="175.58127"
     style="font-weight:700;font-size:16.8001px;font-family:Helvetica-Bold, Helvetica;stroke-width:1.57762"
     id="text356"
     transform="scale(0.97316755,1.0275723)"><tspan
       sodipodi:role="line"
       id="tspan94992"
       x="661.02429"
       y="175.58127">   CW5</tspan><tspan
       sodipodi:role="line"
       x="661.02429"
       y="196.58139"
       id="tspan97090">(Room 1)</tspan></text><text
     x="645.30884"
     y="259.31616"
     style="font-weight:700;font-size:16.8001px;font-family:Helvetica-Bold, Helvetica;stroke-width:1.57762"
     id="text360"
     transform="scale(0.97316755,1.0275723)"><tspan
       sodipodi:role="line"
       id="tspan109032"
       x="645.30884"
       y="259.31616">Living Room</tspan><tspan
       sodipodi:role="line"
       id="tspan109034"
       x="645.30884"
       y="280.31628">Workshops</tspan></text><text
     x="852.15704"
     y="171.99431"
     style="font-weight:700;font-size:13.0931px;font-family:Helvetica-Bold, Helvetica;stroke-width:1.22951"
     id="text364"
     transform="scale(0.97316801,1.0275718)">WC</text><text
     x="803.2652"
     y="154.68651"
     style="font-weight:700;font-size:13.0931px;font-family:Helvetica-Bold, Helvetica;stroke-width:1.22951"
     id="text368"
     transform="scale(0.97316801,1.0275718)">WC</text><text
     x="818.7149"
     y="62.063564"
     style="font-weight:700;font-size:12.6509px;font-family:Helvetica-Bold, Helvetica;stroke-width:1.57762"
     id="text372"
     transform="scale(0.97316755,1.0275723)">CW2</text><text
     x="805.91608"
     y="218.34091"
     style="font-weight:700;font-size:16.8001px;font-family:Helvetica-Bold, Helvetica;stroke-width:1.57762"
     id="text376"
     transform="scale(0.97316754,1.0275723)"><tspan
       sodipodi:role="line"
       id="tspan43337"
       x="805.91608"
       y="218.34091">AVXLab</tspan><tspan
       sodipodi:role="line"
       id="tspan43339"
       x="805.91608"
       y="239.34103">or CW4</tspan></text><text
     x="664.172"
     y="317.79651"
     style="font-size:10.6128px;font-family:Helvetica;stroke-width:0.397976"
     id="text384">45m</text><text
     x="684.81702"
     y="314.26248"
     style="font-size:6.18733px;font-family:Helvetica;stroke-width:0.397976"
     id="text386">2</text><text
     x="801.15454"
     y="263.21912"
     style="font-size:10.6128px;font-family:Helvetica;stroke-width:0.397976"
     id="text395">10m</text><text
     x="822.16736"
     y="256.38742"
     style="font-size:6.18733px;font-family:Helvetica;stroke-width:0.397976"
     id="text397">2</text><text
     x="815.81219"
     y="116.56066"
     style="font-weight:700;font-size:16.8001px;font-family:Helvetica-Bold, Helvetica;stroke-width:1.57762"
     id="text406"
     transform="scale(0.97316757,1.0275723)">Kitchen</text><rect
     style="opacity:0.2;fill:url(#Strips1_1);fill-opacity:1;stroke-width:2.33417;stroke-miterlimit:4;stroke-dasharray:none"
     id="rect105127"
     width="122.33882"
     height="141.78914"
     x="616.1684"
     y="7.3398743" /><rect
     style="opacity:0.2;fill:url(#Strips1_1);fill-opacity:1.0;stroke-width:2.33417;stroke-miterlimit:4;stroke-dasharray:none"
     id="rect105153"
     width="97.252213"
     height="51.798145"
     x="772.73358"
     y="40.780678" /><rect
     style="opacity:0.2;fill:url(#Strips1_1);fill-opacity:1.0;stroke-width:2.33417;stroke-miterlimit:4;stroke-dasharray:none"
     id="rect105313"
     width="54.920906"
     height="114.25148"
     x="531.84747"
     y="7.723495" /></g>
</svg>
