<?xml version="1.0" encoding="UTF-8" standalone="no"?>
<svg xmlns:inkscape="http://www.inkscape.org/namespaces/inkscape" xmlns:sodipodi="http://sodipodi.sourceforge.net/DTD/sodipodi-0.dtd" xmlns:xlink="http://www.w3.org/1999/xlink" xmlns="http://www.w3.org/2000/svg" xmlns:svg="http://www.w3.org/2000/svg" xmlns:serif="http://www.serif.com/" width="100%" height="100%" viewBox="0 0 934 433" version="1.1" xml:space="preserve" style="fill-rule:evenodd;clip-rule:evenodd;" id="svg441"><defs id="defs445"><pattern xlink:href="#pattern3705" id="pattern1605" patternTransform="matrix(4.8688274,2.6965098,-3.4228594,1.8956872,490.67175,36.081443)"/><pattern xlink:href="#Strips1_1" id="pattern3828" patternTransform="matrix(5.5517662,0,0,10,149.6227,2.9810057)"/><pattern xlink:href="#pattern3705" id="pattern3774" patternTransform="matrix(7.8761782,0,0,5.1146553,-251.86389,116.15777)"/><pattern xlink:href="#pattern3701" id="pattern3705" patternTransform="matrix(6.5914229,0,0,4.63387,366.59092,201.27545)"/><pattern xlink:href="#Strips1_1" id="pattern3701" patternTransform="matrix(8.0649548,0,0,3.4922371,274.39554,38.21742)"/><pattern patternUnits="userSpaceOnUse" width="2" height="1" patternTransform="translate(0,0) scale(10,10)" id="Strips1_1"><rect style="fill:black;stroke:none" x="0" y="-0.5" width="1" height="2" id="rect2715"/></pattern>
        
        
        
        
        
        
        
        
        
        
        
        
        
        
        
        
        
        
        
        
        
        
        
        
        
        
        
        
        
        
        
        
        
        
        
        
        
        
        
        
        
        
        
        
        
        
        
        
        
        
        
        
        
        
        
        
        
        
        
        
        
    
                
                
            
                    
                
                
                
            
            
        
            
        
            
        
            
        </defs>
    <g id="g2186" transform="translate(-303.1752,98.6525)">
            <path id="path10100-7" d="m 704.88,281.065 v -47.16 h 4.546 v -3.22 h -13.637 l -0.015,60.196 H 632.22 l -15.554,-14.999 h -84.555 v 8.999 h -24.554 v -43.98 l -11.247,0.088 v 49.892 h -23.718 v -9 h -18.845 v 9 h -28.031 v -9 h -18.845 v 9 H 380.34 v -9 h -18.845 v 9 h -22.686 l -0.001,-98.572 h 157.501 l 10e-4,14.465 h 11.247 l 0.002,-14.465 h 189.107 v 7.233 h 10.178 v -7.233 h 85.162 L 792,219.986 h 2.426 l 0.006,-27.677 h 65.001 v 117.775 h -22.729 l -0.062,7.884 -22.119,-0.002 v -7.882 h -20.089 l -0.087,-64.19 h -2.427 l 0.085,64.19 h -39.413 v 7.882 h -23.128 v -7.882 l -5.879,0.379 -18.705,-29.774 z m 23.296,10e-4 v -50.855 l -3.862,-0.171 0.056,2.682 3.446,0.166 0.36,48.177 h -1.386" style="fill:none;fill-rule:nonzero;stroke:#000000;stroke-width:2.8px"/>
        </g><rect style="opacity:0.241853;fill:url(#pattern3828);fill-opacity:1;fill-rule:evenodd;stroke-width:0;stroke-linecap:round;stroke-linejoin:round;stroke-miterlimit:100.1" id="rect3826" width="67.919655" height="141.78914" x="491.70499" y="10.32088"/><g id="path5397" transform="translate(-10.489,-23.34112)">
            <path d="M 61.486,33.662 V 56.965 H 46.569 v 75.268 h 16.607 v 25.179 H 46.569 v 71.64 h 14.917 v 6.819 l 83.97,-0.32 v 6.336 l -83.97,0.319 v 8.06 H 46.569 v 23.485 h 14.917 v 12.501 h 145.652 v -44.131 l -36.944,0.136 v -6.694 l 36.754,-0.136 v -31.376 l 6.506,-0.128 v 11.014 l 125.319,0.465 v -27.829 h 7.577 v -19.697 h -8.429 v -11.271 l -13.352,-13.352 h -5.873 v -12.69 h 10.418 l 18.941,18.94 h 6.06 v 14.205 H 400.58 V 150.26 l 2.969,0.001 -0.061,-84.603 h 13.638 l 0.06,9.598 h -4.545 v 47.54 h 22.937 V 74.24 l -3.447,-0.166 -0.116,-9.06 3.863,0.171 0.072,57.549 h 2.84 l -0.012,3.85 h -26.705 v 32.958 l 14.773,14.773 36.538,-0.418 v -48.359 h -2.045 l 0.012,-2.969 h 3.359 v 51.328 l 35.056,0.039 -0.112,-109.815 h 2.43 l 0.11,109.815 h 20.091 v 7.883 h 22.117 l 0.063,-7.883 h 22.729 V 72.226 h 7.955 v -22.35 h -7.955 V 33.662 h -65 v 5.449 h -2.43 v -5.449 h -85.159 v 7.232 H 404.426 V 33.662 H 215.319 v 14.464 h -11.25 V 33.662 Z m 145.462,96.522 h 84.095 v 12.501 l -77.625,0.129 0.354,35.9 -6.47,-0.509 z" style="fill:none;fill-rule:nonzero;stroke:#000000;stroke-width:2.83px" id="path184"/>
        </g><g id="path10098" transform="translate(-10.489,-23.34112)">
            <path d="m 413.218,82.926 h 22.727 z m -0.19,8.523 h 22.539 z m 0.379,7.766 h 22.729 z m -0.189,8.145 h 21.97 z m -0.568,7.576 h 23.106 z" style="fill:none;fill-rule:nonzero;stroke:#000000;stroke-width:2px" id="path187"/>
        </g><g id="path1512" transform="matrix(1.41073,0,0,1.41073,-28.49,-97.059)">
            <path d="m 46.667,166.616 h 16.574 c -0.008,4.382 -1.758,8.582 -4.869,11.667 -3.111,3.085 -7.324,4.801 -11.705,4.765" style="fill:none;fill-rule:nonzero;stroke:#d0d4eb;stroke-width:1.42px" id="path190"/>
        </g><path id="rect3772" style="opacity:0.241853;fill:url(#pattern3774);stroke-width:0;stroke-linecap:round;stroke-linejoin:round;stroke-miterlimit:100.1" d="m 233.44133,119.91188 80.63867,0 15.71756,14.71989 v 57.80037 h -96.35623 z"/><g id="rect1" transform="matrix(0.387046,0,0,1,135.487,-23.44586)">
            <rect x="254.58299" y="142.685" width="8.1260004" height="72.203003" style="fill:none;stroke:#000000;stroke-width:1.98px;stroke-linecap:round;stroke-linejoin:round" id="rect193"/>
        </g><g id="path416" transform="matrix(0.63251,0,0,0.63251,559.961,-281.8165)">
            <path d="M 87.61,1072.77 88.864,457.157 H 286.75 v 50.319 h 203.4 v 233.336 l -26.266,39.633 v 158.02 H 272.917 L 242.72,970.22 v 146.41 H 125.556" style="fill:none;stroke:#000000;stroke-width:4.43px" id="path196"/>
        </g><g id="path518" transform="matrix(0.63251,0,0,0.63251,559.961,-281.8165)">
            <path d="m 282.282,541.686 v 139.64 H 88.407" style="fill:none;stroke:#000000;stroke-width:4.43px" id="path199"/>
        </g><g id="path520" transform="matrix(0.63251,0,0,0.63251,559.961,-281.8165)">
            <path d="m 282.282,737.679 v 146.05" style="fill:none;stroke:#000000;stroke-width:4.43px" id="path202"/>
        </g><g id="path522" transform="matrix(0.63251,0,0,0.63251,559.961,-281.8165)">
            <path d="m 87.21,820.097 h 65.66 m 31.962,0 h 97.45" style="fill:none;stroke:#000000;stroke-width:4.43px" id="path205"/>
        </g><g id="path557" transform="translate(-338.188,-27.5835)">
        </g><g id="path604" transform="matrix(0.63251,0,0,0.63251,559.961,-281.8165)">
            <path d="m 336.394,510.027 v 39.778" style="fill:none;stroke:#000000;stroke-width:4.43px" id="path209"/>
        </g><g id="path612" transform="matrix(0.63251,0,0,0.63251,559.961,-281.8165)">
            <path d="m 490.15,591.92 -153.756,-1.373 v 28.289" style="fill:none;stroke:#000000;stroke-width:4.43px" id="path212"/>
        </g><g id="path614" transform="matrix(0.63251,0,0,0.63251,559.961,-281.8165)">
            <path d="M 490.15,662.613 H 336.394 v 54.82" style="fill:none;stroke:#000000;stroke-width:4.43px" id="path215"/>
        </g><g id="path618" transform="matrix(0.63251,0,0,0.63251,559.961,-281.8165)">
            <path d="m 415.852,875.239 h 48.032" style="fill:none;stroke:#000000;stroke-width:4.43px" id="path218"/>
        </g><g id="path620" transform="matrix(0.63251,0,0,0.63251,559.961,-281.8165)">
            <path d="M 377.287,875.239 H 336.394 V 769.147 h 16.633 m 0,0 h 29.572 m 0,0 h 88.772" style="fill:none;stroke:#000000;stroke-width:4.43px" id="path221"/>
        </g><g id="path782" transform="matrix(0.63251,0,0,0.63251,559.961,-281.8165)">
            <path d="M 396.977,727.424 V 662.613" style="fill:none;stroke:#000000;stroke-width:4.43px" id="path224"/>
        </g><g id="path784" transform="matrix(0.63251,0,0,0.63251,559.961,-281.8165)">
            <path d="M 396.977,715.118 H 381.025" style="fill:none;stroke:#000000;stroke-width:4.43px" id="path227"/>
        </g><g id="path1250" transform="matrix(0.63251,0,0,0.63251,559.961,-281.8165)">
            <path d="m 87.61,1072.77 37.946,43.86" style="fill:none;stroke:#000000;stroke-width:1px" id="path230"/>
        </g><g id="path1264" transform="matrix(0.63251,0,0,0.63251,559.961,-281.8165)">
            <path d="m 152.87,820.097 h 31.962" style="fill:none;stroke:#000000;stroke-width:1px" id="path233"/>
        </g><g id="path1266" transform="matrix(0.63251,0,0,0.63251,559.961,-281.8165)">
            <path d="M 282.282,737.679 V 688.163" style="fill:none;stroke:#000000;stroke-width:1px" id="path236"/>
        </g><g id="path1268" transform="matrix(0.63251,0,0,0.63251,559.961,-281.8165)">
            <path d="M 282.282,541.686 V 515.17" style="fill:none;stroke:#000000;stroke-width:1px" id="path239"/>
        </g><g id="path1270" transform="matrix(0.63251,0,0,0.63251,559.961,-281.8165)">
            <path d="m 336.394,549.805 v 33.33" style="fill:none;stroke:#000000;stroke-width:1px" id="path242"/>
        </g><rect style="opacity:0.24185249;fill:url(#Strips1_1);stroke-width:0;stroke-linecap:round;stroke-linejoin:round;stroke-miterlimit:100.1;fill-opacity:1;fill-rule:evenodd" id="rect1176" width="122.33882" height="141.78914" x="616.1684" y="7.3398743"/><g transform="matrix(0.397976,0,0,0.397976,666.472,96.6545)" id="g254">
            <g id="text926">
                <g id="g251">
                    <text x="0" y="0" style="font-size:26.667px;font-family:Helvetica" id="text245">39m</text>
                    <g transform="translate(51.875,-8.88)" id="g249">
                        <text x="0" y="0" style="font-size:15.547px;font-family:Helvetica" id="text247">2</text>
                    </g>
                </g>
            </g>
        </g><g transform="matrix(0.397976,0,0,0.397976,804.762,79.1605)" id="g265">
            <g id="text9261">
                <g id="g262">
                    <text x="0" y="0" style="font-size:26.667px;font-family:Helvetica" id="text256">9m</text>
                    <g transform="translate(37.044,-8.88)" id="g260">
                        <text x="0" y="0" style="font-size:15.547px;font-family:Helvetica" id="text258">2</text>
                    </g>
                </g>
            </g>
        </g><g transform="matrix(0.397976,0,0,0.397976,661.663,217.5795)" id="g276">
            <g id="text9262">
                <g id="g273">
                    <text x="0" y="0" style="font-size:26.667px;font-family:Helvetica" id="text267">20m</text>
                    <g transform="translate(51.875,-8.88)" id="g271">
                        <text x="0" y="0" style="font-size:15.547px;font-family:Helvetica" id="text269">2</text>
                    </g>
                </g>
            </g>
        </g><g id="path1165" transform="matrix(0.63251,0,0,0.63251,559.961,-281.8165)">
            <path d="m 344.185,715.124 36.84,-0.006" style="fill:none;stroke:#000000;stroke-width:1px" id="path278"/>
        </g><g id="path1167" transform="matrix(0.63251,0,0,0.63251,559.961,-281.8165)">
            <path d="m 396.977,727.424 0.364,34.608" style="fill:none;stroke:#000000;stroke-width:1px" id="path281"/>
        </g><g id="path1272" transform="matrix(0.63251,0,0,0.63251,559.961,-281.8165)">
            <path d="m 336.394,618.836 v 34.491" style="fill:none;stroke:#000000;stroke-width:1px" id="path284"/>
        </g><g id="path15121" transform="matrix(1.8027,-0.00109945,0.00109945,1.8027,119.348,7.5561)">
            <path d="m 46.667,166.616 h 16.574 c -0.008,4.382 -1.758,8.582 -4.869,11.667 -3.111,3.085 -7.324,4.801 -11.705,4.765" style="fill:none;fill-rule:nonzero;stroke:#000000;stroke-width:1.42px" id="path287"/>
        </g><g id="path15122" transform="matrix(1.41073,0,0,1.41073,-28.49,-97.059)">
            <path d="m 46.667,166.616 h 16.574 c -0.008,4.382 -1.758,8.582 -4.869,11.667 -3.111,3.085 -7.324,4.801 -11.705,4.765" style="fill:none;fill-rule:nonzero;stroke:#000000;stroke-width:1.42px" id="path290"/>
        </g><g id="path15123" transform="matrix(-1.41064,0.0160444,-0.0160444,-1.41064,266.197,414.3325)">
            <path d="m 46.667,166.616 h 16.574 c -0.008,4.382 -1.758,8.582 -4.869,11.667 -3.111,3.085 -7.324,4.801 -11.705,4.765" style="fill:none;fill-rule:nonzero;stroke:#000000;stroke-width:1.42px" id="path293"/>
        </g><g transform="matrix(1.53529,0,0,1.53529,252.611,29.8455)" id="g302">
            <text x="0" y="0" style="font-weight:700;font-size:10.649px;font-family:Helvetica-Bold, Helvetica" id="text300">Electronics</text>
        </g><g transform="matrix(1.53529,0,0,1.53529,329.119,104.6605)" id="g306">
            <text x="0" y="0" style="font-weight:700;font-size:10.649px;font-family:Helvetica-Bold, Helvetica" id="text304">Sewing</text>
        </g><g transform="matrix(1.53529,0,0,1.62112,55.803,244.7435)" id="g310">
            <text x="0" y="0" style="font-weight:700;font-size:10.649px;font-family:Helvetica-Bold, Helvetica" id="text308">Laserlab</text>
        </g><g transform="matrix(1.53529,0,0,1.62112,76.61,344.1135)" id="g314">
            <text x="0" y="0" style="font-weight:700;font-size:10.649px;font-family:Helvetica-Bold, Helvetica" id="text312">Hobelhöhle</text>
        </g><g transform="matrix(0,1.53529,-1.62112,0,520.635,323.2945)" id="g318">
            <text x="0" y="0" style="font-weight:700;font-size:10.649px;font-family:Helvetica-Bold, Helvetica" id="text316">3D Lab</text>
        </g><g transform="matrix(1.53529,0,0,1.62112,265.44,344.6395)" id="g322">
            <text x="0" y="0" style="font-weight:700;font-size:10.649px;font-family:Helvetica-Bold, Helvetica" id="text320">Scubar</text>
        </g><g transform="matrix(0,1.53529,-1.62112,0,443.734,322.8595)" id="g326">
            <text x="0" y="0" style="font-weight:700;font-size:10.649px;font-family:Helvetica-Bold, Helvetica" id="text324">Storage</text>
        </g><g transform="matrix(0,1.53529,-1.62112,0,463.753,51.9526)" id="g330">
            <text x="0" y="0" style="font-weight:700;font-size:10.649px;font-family:Helvetica-Bold, Helvetica" id="text328">Kitchen</text>
        </g><g transform="matrix(0,1.53529,-1.62112,0,518.00326,51.444829)" id="g340">
            <text x="0" y="0" style="font-weight:700;font-size:10.649px;font-family:Helvetica-Bold, Helvetica" id="text332">Desks 2x</text>
        </g><g transform="matrix(1.53529,0,0,1.62112,252.795,160.9035)" id="g350">
            <text x="-4.340178" y="0.30449715" style="font-weight:700;font-size:10.649px;font-family:Helvetica-Bold, Helvetica" id="text344">Desks 2x</text>
        </g><g transform="matrix(0,1.53529,-1.62112,0,217.335,137.1705)" id="g354">
            <text x="0" y="0" style="font-weight:700;font-size:5.552px;font-family:Helvetica-Bold, Helvetica" id="text352">Darkroom</text>
        </g><g transform="matrix(1.53529,0,0,1.62112,643.906,203.4585)" id="g358">
            <text x="0" y="0" style="font-weight:700;font-size:10.649px;font-family:Helvetica-Bold, Helvetica" id="text356">Room 1</text>
        </g><g transform="matrix(1.53529,0,0,1.62112,628.043,298.9725)" id="g362">
            <text x="0" y="0" style="font-weight:700;font-size:10.649px;font-family:Helvetica-Bold, Helvetica" id="text360">Living Room</text>
        </g><g transform="matrix(1.19652,0,0,1.26341,829.292,176.7365)" id="g366">
            <text x="0" y="0" style="font-weight:700;font-size:10.649px;font-family:Helvetica-Bold, Helvetica" id="text364">WC</text>
        </g><g transform="matrix(1.19652,0,0,1.26341,781.712,158.9515)" id="g370">
            <text x="0" y="0" style="font-weight:700;font-size:10.649px;font-family:Helvetica-Bold, Helvetica" id="text368">WC</text>
        </g><rect style="opacity:0.241853;fill:url(#pattern3701);fill-opacity:1;fill-rule:evenodd;stroke-width:0;stroke-linecap:round;stroke-linejoin:round;stroke-miterlimit:100.1" id="rect3699" width="98.665703" height="49.516129" x="771.33258" y="40.780678"/><g transform="matrix(1.53529,0,0,1.62112,794.6733,64.335446)" id="g374">
            <text x="0" y="0" style="font-weight:700;font-size:8.019px;font-family:Helvetica-Bold, Helvetica" id="text372">Desks 2x</text>
        </g><path id="rect3703" style="opacity:0.241853;fill:url(#pattern1605);stroke-width:0;stroke-linecap:round;stroke-linejoin:round;stroke-miterlimit:100.1" d="m 773.46162,205.46755 h 78.96374 v 65.5989 h -78.96374 z"/><g transform="matrix(1.53529,0,0,1.62112,795.76449,231.66683)" id="g378">
            <text x="0" y="0" style="font-weight:700;font-size:10.649px;font-family:Helvetica-Bold, Helvetica;display:inline" id="text376">AVX</text>
        </g><g transform="matrix(1.19652,0,0,1.26341,413.834,131.1705)" id="g382">
            <text x="0" y="0" style="font-weight:700;font-size:10.649px;font-family:Helvetica-Bold, Helvetica" id="text380">WC</text>
        </g><g transform="matrix(0.397976,0,0,0.397976,664.172,317.7965)" id="g393">
            <g id="text9263">
                <g id="g390">
                    <text x="0" y="0" style="font-size:26.667px;font-family:Helvetica" id="text384">45m</text>
                    <g transform="translate(51.875,-8.88)" id="g388">
                        <text x="0" y="0" style="font-size:15.547px;font-family:Helvetica" id="text386">2</text>
                    </g>
                </g>
            </g>
        </g><g transform="matrix(0.397976,0,0,0.397976,801.592,255.3455)" id="g404">
            <g id="text9264">
                <g id="g401">
                    <text x="0" y="0" style="font-size:26.667px;font-family:Helvetica" id="text395">10m</text>
                    <g transform="translate(51.875,-8.88)" id="g399">
                        <text x="0" y="0" style="font-size:15.547px;font-family:Helvetica" id="text397">2</text>
                    </g>
                </g>
            </g>
        </g><g transform="matrix(1.53529,0,0,1.62112,793.922,119.7745)" id="g408">
            <text x="0" y="0" style="font-weight:700;font-size:10.649px;font-family:Helvetica-Bold, Helvetica" id="text406">Kitchen</text>
        </g><g transform="translate(-10.489,-23.34112)" id="g416">
            <g id="path100981" transform="translate(-0.398049,279.857)">
                <path d="m 413.218,82.926 h 22.727 z m -0.19,8.523 h 22.539 z m 0.379,7.766 h 22.729 z m -0.189,8.145 h 21.97 z m -0.568,7.576 h 23.106 z" style="fill:none;fill-rule:nonzero;stroke:#000000;stroke-width:2px" id="path410"/>
            </g>
            <g id="path100982" transform="translate(-0.273101,286.438)">
                <path d="m 412.65,114.936 h 23.106 z" style="fill:none;fill-rule:nonzero;stroke:#000000;stroke-width:2px" id="path413"/>
            </g>
        </g><g transform="matrix(1.53529,0,0,1.62112,84.248,112.8645)" id="g420">
            <text x="0" y="0" style="font-weight:700;font-size:10.649px;font-family:Helvetica-Bold, Helvetica" id="text418">Lobby</text>
        </g><g id="path15124" transform="matrix(0,-1.41073,-1.41073,0,540.721,171.7025)">
            <path d="m 46.667,166.616 h 16.574 c -0.008,4.382 -1.758,8.582 -4.869,11.667 -3.111,3.085 -7.324,4.801 -11.705,4.765" style="fill:none;fill-rule:nonzero;stroke:#000000;stroke-width:1.42px" id="path422"/>
        </g><g id="path15125" transform="matrix(-1.41066,0.0142221,0.0142221,1.41066,554.621,84.0835)">
            <path d="m 46.667,166.616 h 16.574 c -0.008,4.382 -1.758,8.582 -4.869,11.667 -3.111,3.085 -7.324,4.801 -11.705,4.765" style="fill:none;fill-rule:nonzero;stroke:#000000;stroke-width:1.42px" id="path425"/>
        </g><g id="path15126" transform="matrix(-1.41073,0,0,1.41073,458.803,-216.9465)">
            <path d="m 46.667,166.616 h 16.574 c -0.008,4.382 -1.758,8.582 -4.869,11.667 -3.111,3.085 -7.324,4.801 -11.705,4.765" style="fill:none;fill-rule:nonzero;stroke:#000000;stroke-width:1.42px" id="path428"/>
        </g><g id="path15127" transform="matrix(-1.41073,0,0,1.41073,554.78,-218.4895)">
            <path d="m 46.667,166.616 h 16.574 c -0.008,4.382 -1.758,8.582 -4.869,11.667 -3.111,3.085 -7.324,4.801 -11.705,4.765" style="fill:none;fill-rule:nonzero;stroke:#000000;stroke-width:1.42px" id="path431"/>
        </g><g id="path15128" transform="matrix(0.0102707,-1.41069,-1.41069,-0.0102707,686.092,166.4895)">
            <path d="m 46.667,166.616 h 16.574 c -0.008,4.382 -1.758,8.582 -4.869,11.667 -3.111,3.085 -7.324,4.801 -11.705,4.765" style="fill:none;fill-rule:nonzero;stroke:#000000;stroke-width:1.42px" id="path434"/>
        </g><g id="path15129" transform="matrix(0.00643822,1.41072,1.41072,-0.00643822,-99.327,153.7425)">
            <path d="m 46.667,166.616 h 16.574 c -0.008,4.382 -1.758,8.582 -4.869,11.667 -3.111,3.085 -7.324,4.801 -11.705,4.765" style="fill:none;fill-rule:nonzero;stroke:#000000;stroke-width:1.42px" id="path437"/>
        </g>
<path style="opacity:1;fill:#6267c8;fill-rule:evenodd;stroke:#000000;stroke-width:2;stroke-linecap:round;stroke-linejoin:round;stroke-miterlimit:100.1;stroke-dasharray:6, 12;stroke-dashoffset:0;stroke-opacity:1" d="m 617.90954,98.96716 h 120.59765 v 0" id="path3763"/><g transform="matrix(1.53529,0,0,1.62112,627.65741,123.54356)" id="g3767">
            <text x="32.639137" y="0" style="font-weight:700;font-size:7.60639px;font-family:Helvetica-Bold, Helvetica;display:inline" id="text3765"><tspan id="tspan3919" x="32.639137" y="0" style="text-align:center;text-anchor:middle">Jetpack Cognition</tspan><tspan id="tspan3921" x="32.639137" y="9.507988" style="text-align:center;text-anchor:middle">Lab 2x</tspan></text>
        </g><path id="rect3830" style="opacity:1;fill:#000000;fill-opacity:1;stroke:none;stroke-width:0;stroke-linecap:round;stroke-linejoin:round;stroke-miterlimit:100.1;stroke-dasharray:none;stroke-dashoffset:0" d="M 742.85722,5.6305873 V 32.911837 H 796.3455 V 5.6305873 Z m 12.21289,5.9726567 c 2.51403,0 4.35324,0.870161 5.51563,2.611328 0.64202,0.977622 0.98589,1.958601 1.0332,2.943359 h -3.12109 c -0.20274,-0.756408 -0.46362,-1.32755 -0.78125,-1.712891 -0.56769,-0.685048 -1.40835,-1.027343 -2.52344,-1.027343 -1.13537,0 -2.03196,0.484592 -2.6875,1.455078 -0.65554,0.963349 -0.98242,2.329899 -0.98242,4.099609 0,1.76971 0.34387,3.097567 1.0332,3.982422 0.69609,0.877719 1.57871,1.316406 2.64649,1.316406 1.0948,0 1.92946,-0.378358 2.5039,-1.134765 0.31763,-0.406749 0.58152,-1.016582 0.79102,-1.830078 h 3.09179 c -0.27032,1.719759 -0.96003,3.117788 -2.06835,4.195312 -1.1151,1.077525 -2.54051,1.617188 -4.27735,1.617188 -2.14908,0 -3.83838,-0.727865 -5.06836,-2.183594 -1.22998,-1.462865 -1.8457,-3.468099 -1.8457,-6.015625 0,-2.754468 0.69873,-4.877732 2.09765,-6.369141 1.21646,-1.298738 2.76384,-1.947265 4.64258,-1.947265 z m 7.625,0.298828 h 3.31446 l 1.97656,9.033203 0.42578,2.515625 0.43555,-2.460938 1.68359,-9.08789 h 3.29297 l 1.77539,9.033203 0.45508,2.515625 0.45703,-2.417969 1.99609,-9.130859 h 3.17383 l -4.20703,15.777344 h -2.98047 l -1.80469,-9.226563 -0.52734,-3.050781 -0.52734,3.050781 -1.80469,9.226563 h -2.89844 z m 24.74414,0.257812 h 2.40235 v 15.519532 h -2.96094 V 16.97629 h -3.45508 v -2.076171 c 0.91234,-0.04281 1.55108,-0.107727 1.91602,-0.19336 0.5812,-0.135582 1.05303,-0.407705 1.41797,-0.814453 0.25005,-0.278302 0.43996,-0.649447 0.56836,-1.113281 0.0743,-0.278302 0.11132,-0.483558 0.11132,-0.619141 z"/><path id="path3843" style="opacity:1;fill:#000000;fill-opacity:1;stroke:none;stroke-width:0;stroke-linecap:round;stroke-linejoin:round;stroke-miterlimit:100.1;stroke-dasharray:none;stroke-dashoffset:0" d="m 871.1295,37.963413 v 27.28125 h 57.72656 v -27.28125 z m 13.27343,5.972657 c 2.51402,0 4.35128,0.870161 5.51368,2.611328 0.642,0.977622 0.98784,1.958601 1.03515,2.943359 h -3.12305 c -0.20274,-0.756408 -0.46362,-1.32755 -0.78125,-1.712891 -0.56768,-0.685048 -1.40833,-1.027343 -2.52343,-1.027343 -1.13537,0 -2.03001,0.484592 -2.68555,1.455078 -0.65554,0.963349 -0.98438,2.329899 -0.98437,4.099609 0,1.76971 0.34386,3.097567 1.0332,3.982422 0.69608,0.877719 1.5787,1.316406 2.64648,1.316406 1.09481,0 1.92946,-0.378358 2.50391,-1.134765 0.31763,-0.406749 0.58151,-1.016582 0.79101,-1.830078 h 3.0918 c -0.27033,1.719759 -0.96002,3.117788 -2.06836,4.195312 -1.11508,1.077525 -2.5405,1.617188 -4.27734,1.617188 -2.14909,0 -3.83838,-0.727865 -5.06836,-2.183594 -1.22998,-1.462865 -1.8457,-3.468099 -1.8457,-6.015625 0,-2.754468 0.70068,-4.877732 2.0996,-6.369141 1.21647,-1.298738 2.76384,-1.947265 4.64258,-1.947265 z m 7.62305,0.298828 h 3.31445 l 1.97657,9.033203 0.42578,2.515625 0.43554,-2.460938 1.6836,-9.08789 h 3.29492 l 1.77344,9.033203 0.45507,2.515625 0.45704,-2.417969 1.99804,-9.130859 h 3.17188 l -4.20703,15.777344 h -2.98047 l -1.80469,-9.226563 -0.52734,-3.050781 -0.52539,3.050781 -1.80469,9.226563 h -2.90039 z m 24.88672,0.18164 c 1.55438,0 2.78988,0.457695 3.70898,1.371094 0.91911,0.906262 1.37891,2.108877 1.37891,3.607422 0,1.148885 -0.32387,2.168557 -0.97266,3.060547 -0.42576,0.592282 -1.12449,1.252603 -2.09765,1.980469 l -1.15625,0.867187 c -0.72312,0.542332 -1.21991,0.935113 -1.49024,1.177735 -0.26356,0.24262 -0.48745,0.524585 -0.66992,0.845703 h 6.41797 v 2.685547 h -10.06641 c 0.0271,-1.113205 0.25396,-2.130248 0.67969,-3.050782 0.41225,-1.03471 1.38388,-2.129135 2.91797,-3.285156 1.33135,-1.006165 2.19397,-1.726818 2.58594,-2.162109 0.60148,-0.677914 0.90234,-1.420203 0.90234,-2.226563 0,-0.656504 -0.17291,-1.20338 -0.51758,-1.638672 -0.34466,-0.43529 -0.83844,-0.652344 -1.48047,-0.652344 -0.87855,0 -1.47533,0.346879 -1.79297,1.039063 -0.18245,0.399613 -0.29043,1.033714 -0.32421,1.904297 h -2.8086 c 0.0473,-1.320146 0.27416,-2.387676 0.67969,-3.201172 0.77043,-1.548496 2.13886,-2.322266 4.10547,-2.322266 z"/><path id="path3849" style="opacity:1;fill:#000000;fill-opacity:1;stroke:none;stroke-width:0;stroke-linecap:round;stroke-linejoin:round;stroke-miterlimit:100.1;stroke-dasharray:none;stroke-dashoffset:0" d="m 538.7901,151.39378 v 27.28125 h 57.72656 v -27.28125 z m 13.27344,5.9707 c 2.514,0 4.35127,0.87211 5.51367,2.61328 0.64202,0.97762 0.98784,1.9586 1.03515,2.94336 h -3.12304 c -0.20274,-0.75641 -0.46362,-1.32755 -0.78125,-1.71289 -0.56768,-0.68505 -1.40835,-1.02734 -2.52344,-1.02734 -1.13537,0 -2.03001,0.48459 -2.68555,1.45508 -0.65554,0.96335 -0.98437,2.3299 -0.98437,4.0996 0,1.76971 0.34582,3.09757 1.03515,3.98243 0.69609,0.87772 1.57676,1.3164 2.64453,1.3164 1.09482,0 1.92947,-0.37835 2.50391,-1.13476 0.31764,-0.40675 0.58152,-1.01658 0.79102,-1.83008 h 3.09179 c -0.27032,1.71976 -0.96002,3.11779 -2.06836,4.19531 -1.11507,1.07753 -2.54049,1.61719 -4.27734,1.61719 -2.14908,0 -3.83838,-0.72787 -5.06836,-2.18359 -1.22998,-1.46287 -1.8457,-3.4681 -1.8457,-6.01563 0,-2.75447 0.70068,-4.87773 2.09961,-6.36914 1.21646,-1.29874 2.76382,-1.94922 4.64258,-1.94922 z m 7.62304,0.30078 h 3.31446 l 1.97656,9.03321 0.42578,2.51562 0.43555,-2.46094 1.68359,-9.08789 h 3.29492 l 1.77344,9.03321 0.45703,2.51562 0.45508,-2.41797 1.99805,-9.13086 h 3.17187 l -4.20703,15.77735 h -2.98047 l -1.80469,-9.22657 -0.52539,-3.05078 -0.52734,3.05078 -1.80469,9.22657 h -2.90039 z m 24.85547,0.18164 c 1.40569,0 2.5382,0.38557 3.39649,1.15625 0.86502,0.76355 1.29687,1.79043 1.29687,3.08203 0,0.9134 -0.25591,1.68454 -0.76953,2.3125 -0.32439,0.39248 -0.66225,0.66002 -1.01367,0.80274 0.26356,0 0.64142,0.23869 1.13476,0.7168 0.73664,0.72072 1.10547,1.70629 1.10547,2.95507 0,1.31301 -0.43183,2.46777 -1.29687,3.4668 -0.85828,0.99189 -2.13273,1.48828 -3.82227,1.48828 -2.0815,0 -3.52692,-0.71607 -4.33789,-2.15039 -0.42576,-0.76354 -0.66363,-1.76353 -0.71094,-2.99805 h 2.83789 c 0,0.62083 0.0959,1.13427 0.28516,1.54102 0.35142,0.74927 0.99015,1.125 1.91602,1.125 0.56768,0 1.06146,-0.20458 1.48046,-0.61133 0.42576,-0.41388 0.63868,-1.00471 0.63868,-1.77539 0,-1.02044 -0.3938,-1.7024 -1.17774,-2.04492 -0.44604,-0.19267 -1.14777,-0.28906 -2.10742,-0.28906 v -2.1836 c 0.93938,-0.0143 1.5951,-0.11066 1.9668,-0.28906 0.64202,-0.29971 0.96289,-0.90691 0.96289,-1.82031 0,-0.59228 -0.16495,-1.07425 -0.4961,-1.44531 -0.32439,-0.37107 -0.78419,-0.55665 -1.3789,-0.55665 -0.68257,0 -1.18236,0.22885 -1.5,0.68555 -0.32439,0.4567 -0.48031,1.06654 -0.4668,1.83008 h -2.69726 c 0.0271,-0.77068 0.15201,-1.50117 0.375,-2.19336 0.23652,-0.60655 0.60837,-1.16785 1.11523,-1.68164 0.37845,-0.36393 0.82728,-0.64131 1.34766,-0.83398 0.52037,-0.19267 1.15911,-0.28907 1.91601,-0.28907 z"/><path id="path3855" style="opacity:1;fill:#000000;fill-opacity:1;stroke:none;stroke-width:0;stroke-linecap:round;stroke-linejoin:round;stroke-miterlimit:100.1;stroke-dasharray:none;stroke-dashoffset:0" d="m 272.17575,193.2667 v 27.28125 h 57.72851 V 193.2667 Z m 13.27344,5.97265 c 2.514,0 4.35321,0.87016 5.51562,2.61133 0.64202,0.97762 0.9859,1.9586 1.0332,2.94336 h -3.12109 c -0.20275,-0.75641 -0.46362,-1.32755 -0.78125,-1.71289 -0.56768,-0.68505 -1.40835,-1.02735 -2.52344,-1.02735 -1.13536,0 -2.03196,0.4846 -2.6875,1.45508 -0.65553,0.96335 -0.98242,2.3299 -0.98242,4.09961 0,1.76971 0.34388,3.09757 1.0332,3.98242 0.69609,0.87772 1.5787,1.31641 2.64649,1.31641 1.09481,0 1.92946,-0.37836 2.5039,-1.13477 0.31764,-0.40674 0.58151,-1.01658 0.79102,-1.83007 h 3.0918 c -0.27033,1.71976 -0.96003,3.11778 -2.06836,4.19531 -1.11509,1.07752 -2.54051,1.61719 -4.27735,1.61719 -2.14908,0 -3.83838,-0.72787 -5.06836,-2.1836 -1.22998,-1.46286 -1.8457,-3.4681 -1.8457,-6.01562 0,-2.75447 0.69873,-4.87773 2.09766,-6.36914 1.21646,-1.29874 2.76382,-1.94727 4.64258,-1.94727 z m 7.62304,0.29883 h 3.31641 l 1.97656,9.03516 0.42578,2.51562 0.43555,-2.46289 1.68359,-9.08789 h 3.29297 l 1.77539,9.03516 0.45508,2.51562 0.45703,-2.41992 1.9961,-9.13086 h 3.17382 l -4.20703,15.77734 h -2.98047 l -1.80468,-9.22656 -0.52735,-3.05078 -0.52734,3.05078 -1.80469,9.22656 h -2.89844 z m 25.24219,0.35352 h 3.24414 v 9.69726 h 1.66211 v 2.38672 h -1.66211 v 3.33984 h -2.82813 v -3.33984 h -5.81835 v -2.66406 z m 0.41601,2.99804 -3.67968,6.69922 h 3.67968 z"/><g transform="matrix(1.53529,0,0,1.62112,626.59732,55.697628)" id="g1613">
            <text x="32.639137" y="0" style="font-weight:700;font-size:7.60639px;font-family:Helvetica-Bold, Helvetica;display:inline" id="text1611"><tspan id="tspan1609" x="32.639137" y="0" style="text-align:center;text-anchor:middle">Trackle 4x</tspan></text>
        </g></svg>